<?xml version="1.0" encoding="UTF-8"?>
<svg id="Layer_1" xmlns="http://www.w3.org/2000/svg" version="1.1" viewBox="0 0 59.2 59.9">
  <!-- Generator: Adobe Illustrator 29.4.0, SVG Export Plug-In . SVG Version: 2.1.0 Build 152)  -->
  <defs>
    <style>
      .st0 {
        fill: #fff;
      }
    </style>
  </defs>
  <path class="st0" d="M52,11.5c0,0-.2,0-.4,0s0,0-.2,0h-.4c-.2,0-.2,0-.2,0h-.7c-.2,0-.4,0-.6-.2h0s0,.2,0,.4v.5c0,.3.2.6.2,1v.5c.2.9.4,1.8.6,2.7.3.2.8.3,1.2.4.3,0,.5,0,.8.2h.2c.2,0,.4,0,.6,0h0c.2,0,.4,0,.6.2h.2c0,0,.3,0,.4,0h.2c0-.4-.2-.7-.3-.9h0c0-.4-.2-.6-.3-.8h0c0-.3-.2-.5-.3-.8h0c0-.3-.2-.5-.2-.7h0c0-.3-.2-.4-.2-.6,0-.2,0-.3-.2-.4h0c0-.2,0-.3-.2-.4h0v-.4h-.4c0,0-.3,0-.4-.2h0v-.5Z"/>
  <path class="st0" d="M54.5,17.8h-.2c-.4,0-.8-.2-1.3-.3-.2,0-.4,0-.7-.2h0c-.2,0-.4,0-.6,0h-1v.2c0,.7.2,1.5.3,2.2v.3c0,.7.2,1.4.2,2.1v.3h.7c.3,0,.6,0,.9.2.3,0,.5,0,.8.2l2.6.4h.2v-1c-.2-.3-.2-.6-.3-1v-.4c0-.5-.2-.9-.3-1.4v-.2c0-.3-.2-.7-.3-1h-.2c0,0-.2,0-.4,0l-.4-.2Z"/>
  <path class="st0" d="M43.4,11.9c.2.9.4,1.8.5,2.7.9.2,1.8.3,2.7.5h.6c.6,0,1.3.3,1.9.4v-.5c0-.2,0-.3,0-.5,0-.3,0-.7-.2-1,0,0,0-.3,0-.4,0-.5-.2-.9-.4-1.4h0c0-.5-.2-.8-.3-1.2-.4,0-.8-.2-1.2-.3-.5,0-.9-.2-1.4-.3,0,0-.3,0-.4,0-.3,0-.7,0-1-.2h-1c0,.6.3,1.3.4,1.9v.5h0Z"/>
  <path class="st0" d="M43.4,41.8c0-.6.2-1.2.2-1.8v-.3c0-.5,0-.9.2-1.4v-1.3h-5.9c0,.4,0,.7,0,1.1v4.1c0,.6,0,.4,0,.6v.8h.2c.8,0,1.7,0,2.5,0h0c.8,0,1.6,0,2.4-.2h.2c.2-.5.3-.9.3-1.2v-.5.2Z"/>
  <path class="st0" d="M47.7,35.8h.2c.7,0,1.4,0,2.1,0h.3v-.7c0-.2,0-.5,0-.7v-4.8h-.2c-.7,0-1.5-.2-2.3-.2h0c-.8,0-1.6,0-2.4-.2h-.3v4.4c0,.3,0,.7,0,1v1.5h.2c.9,0,1.7-.2,2.5-.2h0Z"/>
  <path class="st0" d="M44.2,35.1c0-.2,0-.5,0-.7v-5.3h-1.4c-.6,0-1.1,0-1.7,0h-3.1v7.3h2.9c.9,0,1.9,0,2.9,0v-.8l.3-.3Z"/>
  <path class="st0" d="M50.6,27.9v-4.1c0-.3,0-.6,0-1h-1.2c-.5,0-1,0-1.5-.2h0c-.4,0-.9,0-1.4-.2h-1.1v1.4h0v1.6c0,.5,0,1.1,0,1.6v1.4h.3c.8,0,1.5,0,2.3.2h.2c.8,0,1.5.2,2.3.2h.2v-.9Z"/>
  <path class="st0" d="M45.9,21.1h.3c.5,0,1,0,1.5.2h.3c.4,0,.8,0,1.1.2h1.1v-.2c0-.8-.2-1.6-.3-2.3v-.2c0-.7-.2-1.5-.4-2.2v-.2c-.9-.2-1.8-.4-2.7-.6-.2,0-.4,0-.7,0-.6,0-1.3-.2-1.9-.4v.3c0,.8.3,1.7.4,2.5v.2c0,.8.2,1.6.3,2.3v.2h1v.3Z"/>
  <path class="st0" d="M34.5,2.2h-5.4v.8s0,.2,0,.3v1.8c0,.2,0,.5,0,.7v.9c0,.2,0,.3,0,.4v.3h.3c.8,0,1.7,0,2.5.1h0c.9,0,1.7,0,2.5.2h.3v-1.2q0-.2,0-.3v-.9c0-.3,0-.5-.2-.8,0-.2,0-.5-.2-.7v-.8c0-.1,0-.3,0-.4h0v-.4Z"/>
  <path class="st0" d="M3.8,22.7c.3,0,.6,0,.9-.2.1,0,.2,0,.3,0,.4,0,.8-.2,1.2-.2h.2c.3,0,.6,0,.8-.2,0-.3,0-.6.1-.9v-2.2c0-.3.1-.7.1-1v-1h-.4c-.2,0-.2,0-.3,0h-.3c0,0-.2,0-.3,0h-.6c-.4.2-.8.3-1.3.4-.1,0-.2,0-.4,0h-.3c0,.3-.1.6-.1.8v.3c0,.4,0,.9-.2,1.3v2.4h.3c0,0,.3,0,.4,0v.4Z"/>
  <path class="st0" d="M2.6,35.3h1.6c.4,0,.9,0,1.4,0h1.4v-5.9h-1c-.4,0-.8,0-1.2.2h-.1c-.4,0-.8,0-1.2.2h-.4c-.2,0-.4,0-.6,0v5.3Z"/>
  <path class="st0" d="M8.8,21.8c.2,0,.4,0,.6,0,.4,0,.8,0,1.1-.2,0,0,.3,0,.4,0,.5,0,1.1,0,1.6-.2h1.4v-.2c0-.8,0-1.6,0-2.4v-.2c0-.8,0-1.6.2-2.4v-.2h-.3c-.8.2-1.7.3-2.5.5h-.2c-.8.2-1.7.4-2.5.5h-.2c0,.2-.1.5-.1.7v2.1c0,.4-.1.7-.1,1.1v1.1c.2.2.4,0,.6,0h-.1Z"/>
  <path class="st0" d="M3.6,41.8h1c.3,0,.7,0,1.2.2h.9c.2,0,.4,0,.5,0h.3v-.6c0-.2,0-.4-.1-.6v-1.5c0-.5-.1-1.1-.1-1.6v-1.5h-1.2c-.5,0-1,0-1.4,0h-1.6c0,.2,0,.5.1.7v2.1c.1.5.1,1,.2,1.4,0,0,0,.3.1.4v1Z"/>
  <path class="st0" d="M24.3,7.3c.5,0,1-.1,1.4-.1h3.2v-2.1c0-.2,0-.3,0-.4v-.9s0-.3,0-.4v-1.3h0c-.2-.1-.4-.1-.7-.1h-.5c-.4,0-.9.1-1.3.1h-1.7c-.2,0-.4.1-.7.1v1.2h0v2.4h0v.9h0v.5c.3,0,.5,0,.8-.1,0,.1,0,.1.3.1h-.6Z"/>
  <path class="st0" d="M11.5,15.2h.3c.8-.2,1.6-.3,2.4-.4,0,0,.2,0,.3,0v-1.3c0-.5,0-1,.2-1.5v-1.5c0-.4,0-.3,0-.5v-.5c-.2,0-.4,0-.6,0h-.6c-.4,0-.7.2-1.1.3,0,0-.3,0-.4,0-.5,0-1,.3-1.5.4h0c-.4,0-.8.2-1.1.3,0,.3,0,.6-.2.9v.2c-.1.4-.2.9-.2,1.3s0,.2-.1.3c0,.4,0,.7-.2,1.1,0,.2,0,.3-.1.5v.6h.3c.7,0,1.6,0,2.4-.3h.1Z"/>
  <path class="st0" d="M22,7v-2h0v-.8h0v-1.9h-.6c-.2,0-.4.1-.6.1-.4,0-.7,0-1.1.2,0,0-.3.1-.4.1-.5,0-1,.2-1.4.4,0,0-.2.1-.3.1-.3,0-.6.2-1,.3,0,0,0,.2,0,.2v1s0,.2,0,.3v1.2c0,.2,0,.3,0,.5v.3c0,.2,0,.3,0,.5v.8l6.2-1v-.4h-.4Z"/>
  <path class="st0" d="M21.7,13.5c0-.8,0-1.5,0-2.2v-2.8h-1.3c-.4,0-.8,0-1.2.2,0,0-.3,0-.4,0-.5,0-1.1.2-1.6.2s-.3,0-.4,0c-.3,0-.7,0-1,.2,0,.3,0,.6,0,.9v.3c0,.5,0,.9-.2,1.4v2c0,.2,0,.4,0,.6l6.3-.9v-.3.2Z"/>
  <path class="st0" d="M8.2,35.6h2.6c.9,0,1.8,0,2.7,0h.3c0-.6,0-1.3,0-2v-4.9c-.3,0-.5,0-.8,0h-2.1c-.5,0-1.1,0-1.6.2h-1.2v6.2h.3v.3Z"/>
  <path class="st0" d="M32.1,43.9h4.7v-1.5c0-.6,0-1.2,0-1.8v-3.4h-6.2v3.4h0c0,.7,0,1.3,0,1.9v1.5h.7c.3,0,.5,0,.8-.1Z"/>
  <path class="st0" d="M30.4,13.4h1.4c.5,0,1.1,0,1.6,0h3.1c0-.2,0-.5,0-.7v-.6c0-.4,0-.8-.2-1.2v-.2c0-.5,0-1-.2-1.4v-.4c0-.3,0-.5,0-.8h-1.3c-.5,0-1-.1-1.6-.1h-2.9c0,.2,0,.4,0,.6v1.9c0,.5,0,1,0,1.4v1.3h.1Z"/>
  <path class="st0" d="M29.1,13.3h.5v-1.2c0-.4,0-.9,0-1.3h0v-1.9c0-.2,0-.5,0-.7h-1.4c-.5,0-1.1,0-1.6,0h-2.2c-.3,0-.6,0-.8,0v5.2s2.2-.3,5-.4h1.1-.4Z"/>
  <path class="st0" d="M34.4,28.6h-3.2v7.8h6.1v-7.8s-2.9,0-2.9,0Z"/>
  <path class="st0" d="M24.7,44c.5-.2.8-.2,1.2,0h3.8c0-.3,0-.6,0-.9v-2.6c0-.5,0-1.1,0-1.6v-1.6h-7.6v3.4c0,1,0,2.1,0,3.1v.2c.7,0,1.4,0,2.1,0h.2Z"/>
  <path class="st0" d="M15.1,18.2v2.5c0,.1,0,.2,0,.3.3,0,.5,0,.8,0h2.5c.6,0,1.2,0,1.8,0h1.6v-3.1c0-.8,0-1.6,0-2.4v-.4c-.3,0-.5,0-.8,0h-.6c-.4,0-.8,0-1.3.2h-.5c-.6,0-1.2.2-1.7.2h-.5c-.3,0-.7,0-1,.2v.2c-.2.7-.3,1.5-.3,2.3h0Z"/>
  <path class="st0" d="M9.2,28.4h3.5c.3,0,.6,0,1,0v-2.9h0c0-1,0-1.9,0-2.7v-.3h-1.3c-.5,0-.9,0-1.4.2h-.2c-.5,0-1.1,0-1.6.2h-.4c-.3,0-.6,0-.9,0v5.7c.2,0,.5-.2.7-.2s.3,0,.5,0h0Z"/>
  <path class="st0" d="M25.8,20.4h4.2v-.3c0-1.9-.2-3.8-.3-5.6v-.3h-6.1c-.3,0-.5,0-.8,0v3c0,1,0,1.8,0,2.7v.3h.2c1,0,2,0,3,0v.2Z"/>
  <path class="st0" d="M19.8,28.5h-4.2c-.3,0-.6,0-.9,0v7.1h.2c2,0,4.1,0,6.2,0h.2v-7.5h-1.6v.2Z"/>
  <path class="st0" d="M8.6,42.7h1.3c.5,0,1,0,1.5.2h1.5q.4,0,.6,0h.7v-3.1c0-.6,0-1.2,0-1.7v-1.7h-3c-.8,0-1.6,0-2.4,0h-.3c0,.3,0,.6.1.9v2.1h0c0,.6.1,1.2.1,1.7v1.6Z"/>
  <path class="st0" d="M8.6,48.4c0-.3,0-.6-.2-1v-.2c0-.4,0-.7-.2-1.1v-.2c0-.8-.2-1.6-.4-2.4h0c0,0-.6-.2-.6-.2h-1.2c0,0-1.8-.4-1.8-.4h-.7c0,0,.9,1.6.9,1.6.7,1.2,1.5,2.3,2.4,3.4l.4.7h1.4v-.2Z"/>
  <path class="st0" d="M15.6,54v-.5h0c0-.3,0-.4,0-.6v-.7h0v-.8h0c0-.2,0-.3,0-.5h0c-.9,0-1.7-.2-2.5-.4h-.2c-.4,0-.7,0-1.1-.2h-.2c-.3,0-.6,0-.9-.2h0v.3l.3,1.4h0c1,.9,2,1.7,3.1,2.4l.8.5h.9l.2-.2q.2,0,.2,0v-.3h-.5Z"/>
  <path class="st0" d="M1.9,34.8v-1.8h0v-2.6c-.3,0-.6,0-.8.2H.3c.1,1.5.3,3,.6,4.5h1.2c-.1,0-.1-.3-.1-.4h-.1Z"/>
  <path class="st0" d="M2.2,39.1v-1.5h0v-1.4h-1.1c.4,1.7,1,3.3,1.6,4.9v-.5c-.1-.3-.1-.7-.2-1,0,0,0-.3-.1-.4h-.2Z"/>
  <path class="st0" d="M57.2,36.3c0,.4,0,.8-.2,1.1h0c0,.6-.2,1.1-.3,1.6v.5c0,.3-.2.7-.3,1,0,.2,0,.3,0,.5v.4c.8-1.7,1.4-3.4,1.8-5.2h0c-.2,0-.4,0-.6,0h-.3Z"/>
  <path class="st0" d="M54.5,42.9h0Z"/>
  <path class="st0" d="M53.9,43c-.4,0-.8,0-1.3.2h-.2c-.2,0-.4,0-.6,0h-1.3c0,0-.3,0-.4,0,0,.4-.2.8-.3,1.2h0c0,.6-.2,1.1-.4,1.6v.5c0,.3-.2.7-.3,1,0,.2,0,.4-.2.5,0,0,0,.3,0,.4h0c.2,0,.4,0,.6-.2h0c.2,0,.3,0,.5,0h.4s.2,0,.3,0h.6c0,0,.1,0,.2,0h.2c0-.2.3-.3.4-.5h0c0-.3.3-.6.6-1.1h0c0-.2,0-.4.2-.5s0-.2.2-.4v-.2c0-.2.2-.3.2-.5h0c0-.3.2-.5.3-.8h0c0-.4.2-.6.2-.9-.2,0-.4,0-.5,0h0l.5-.3Z"/>
  <path class="st0" d="M39.5,56.3h-.9q-.3,0-.4,0h-2.7v.2s0,.2,0,.3h0v.4h0c0,.2,0,.3,0,.4h0c1.7-.2,3.4-.7,5-1.4v-.2c.2-.1.2-.2,0-.2,0,0-.2,0-.4,0-.2,0-.4,0-.5,0v.3Z"/>
  <path class="st0" d="M41.3,52.1c0-.3,0-.6.2-.9,0,0-.2,0-.3,0h-.5c-.3,0-.6,0-.9,0h-2.2c-.3,0-.6,0-.9,0,0,.3,0,.6-.2.9v.2c0,.4-.2.9-.2,1.3s0,.2,0,.3c0,.3,0,.6-.2.9v.7h2.4c.4,0,.9,0,1.3-.2h.3c.3,0,.6,0,.8,0h0v-.5c0-.1,0,0,0-.2v-.5c0-.2,0-.4,0-.6h0v-.7h0c0-.3,0-.5,0-.7h.2Z"/>
  <path class="st0" d="M37.9,50.4h3.3c.3,0,.5,0,.8,0v-.3c.2-.8.4-1.6.5-2.5v-.2c.2-.9.3-1.7.5-2.5v-.3h-.3c-.8,0-1.6,0-2.4.2h-2.8v1.4c0,.6,0,1.1-.2,1.6v.3c0,.4,0,.9-.2,1.3v.5c0,.2,0,.5,0,.7h1,0Z"/>
  <path class="st0" d="M49,44.8v-1.1c-.2,0-.3,0-.5,0h-.6c-.3,0-.7,0-1,0h-.4c-.5,0-1,0-1.5.2h-.2c-.4,0-.7,0-1.1,0v.2c0,.8-.3,1.6-.5,2.5v.2c-.2.9-.3,1.7-.5,2.6v.2h1.2c.3,0,.7,0,1,0h.4c.5,0,.9,0,1.3-.2h.3c.3,0,.5,0,.8-.2,0-.3.2-.6.3-1,0,0,0-.2,0-.3,0-.5.3-1,.4-1.5,0,0,0-.3,0-.4,0-.4.2-.7.3-1.1v-.3Z"/>
  <path class="st0" d="M55.3,36.4h-1.9c-.4,0-.8,0-1.2,0h-1c0,.3,0,.7,0,1v.4c0,.5,0,1.1-.2,1.6,0,0,0,.3,0,.4,0,.4,0,.8-.2,1.2v1.3h1.3c.2,0,.4,0,.5,0h1.6c0,0,.2,0,.4,0h.6c0-.3.2-.7.3-1,0,0,0-.2,0-.3,0-.5.3-1,.4-1.5,0,0,0-.3,0-.5,0-.3.2-.7.2-1.1s0-.4,0-.6c0,0,.2-.4.2-.6h-.9l-.2-.2Z"/>
  <path class="st0" d="M29,52.2v-.6h-6v1.1c0,1.3,0,2.3.2,3.1h5.1c0-.2,0-.3,0-.5v-.2h0v-.2c0-.4,0-.8.2-1.2h0c0-.5,0-.9.2-1.2v-.4h.2Z"/>
  <path class="st0" d="M35.3,53.4c0-.3,0-.6.2-1v-1h-5.8v1c0,.4,0,.9-.2,1.3h0c0,.5,0,.8-.2,1.2v.8h5.4c0-.2,0-.4,0-.6v-.3c0-.4.2-.8.3-1.2v-.2c0,0,.2,0,.2,0Z"/>
  <path class="st0" d="M16.6,54.6v.2c.3,0,.5,0,.8.2h.6c.5,0,1,.2,1.4.2h.3c.4,0,.8,0,1.2.2h1.3v-.8h0v-3.5h-1.4c-.6,0-1.1,0-1.6,0h-2.5c-.2,0-.4,0-.6,0h0v1.1s0,.3,0,.4v.8h0c0,.2,0,.4,0,.5v.9h.3Z"/>
  <path class="st0" d="M49.1,9.8c.2,0,.4,0,.6.2h.3c.2,0,.3,0,.5.2h.3c.2,0,.3,0,.5.2h.2c.2,0,.3,0,.5.2h0c-1.3-1.5-2.7-3-4.3-4.2.2.7.6,1.7,1,3.1,0,0,.2,0,.3,0v.2Z"/>
  <path class="st0" d="M19.6,2c.4-.1.8-.2,1.2-.3h.2c.4,0,.8-.2,1.3-.2v-.6c-1.4.4-2.8.8-4.2,1.5.4,0,.8-.2,1.1-.3h.4Z"/>
  <path class="st0" d="M18,2.4h0,0Z"/>
  <path class="st0" d="M18,2.4h-.2.2Z"/>
  <path class="st0" d="M24.3,1.2h3.5c0-.4,0-.6-.2-.8-1.5.1-3,.3-4.4.6v.6h.5c.2-.1.4-.1.5-.1v-.3Z"/>
  <path class="st0" d="M36.4,1.5c.5,0,.9.2,1.4.3h.4c.3.1.6.1,1,.2h.5c.2,0,.3.1.4.1h0c-1.6-.8-3.3-1.3-5.1-1.6,0,.1.2.3.2.6.4,0,.8,0,1.2.2v.2Z"/>
  <path class="st0" d="M29.4.9h3.1c.3,0,.6,0,.8.1h.9c0-.4-.2-.6-.2-.7-1.7-.3-3.4-.4-5.2-.3,0,.3,0,.6.2.9h.4Z"/>
  <path class="st0" d="M56.1,30.3h-.2c-.2,0-.3,0-.5,0h-.6c-.5,0-1,0-1.6-.2h-1.5v3.6c0,.3,0,.7,0,1v1.2h5.2v-.7q0-.3,0-.4c0-.9.2-1.8.2-2.7v-1.1c-.3-.1-.4-.2-.5-.2h-.4v-.4Z"/>
  <path class="st0" d="M56,17.3h0c0-.2-.2-.5-.3-.7h0v.5c0,.2,0,0,0,.2h.2Z"/>
  <path class="st0" d="M56.6,25.2v-1.2h-.2s-.3,0-.4,0h-.7c-.2,0-.4,0-.7-.2-.2,0-.5,0-.8-.2h-1.2c-.2,0-.3,0-.5,0h-.6v.3c0,.8,0,1.7.2,2.5v.2c0,.8,0,1.6,0,2.5v.3h1.6c.3,0,.5,0,.8,0h1.8s.3,0,.4,0h.7v-1.4h0v-1.9c0-.3,0-.6,0-.9h-.4Z"/>
  <path class="st0" d="M56.6,18.5h-.2s0,.2,0,.4v.5c0,.3,0,.6.2.9v.4c0,.5.2.9.3,1.4,0,.4,0,.8.2,1.2h.6c-.4-1.6-.9-3.3-1.5-4.9h.3Z"/>
  <path class="st0" d="M38.6,25.4s.2-3.2,1.2-4.2,2-1.2,2-1.2c0,0-1.2-.3-2-1.2-.9-.9-1.2-4.2-1.2-4.2,0,0-.3,3.3-1.2,4.2s-2,1.2-2,1.2c0,0,.9,0,2,1.2s1.2,4.2,1.2,4.2Z"/>
  <path class="st0" d="M10.9,49.1c.4,0,.7.2,1.1.2h0c.4,0,.8,0,1.2.2h.2c.4,0,.8,0,1.3.2h0v-.6c0-.2,0-.4,0-.6v-1.6c0-.5,0-1-.2-1.5v-.4c0-.3,0-.7,0-1-.3,0-.7,0-1,0h-.4c-.5,0-1,0-1.5-.2h-1.6q-.4,0-.6,0h-.6c0,.5,0,.9.2,1.3v.2c.1.4.1.8.2,1.2h0c.1.5.1.8.2,1.2h0c0,.5.2.8.2,1.1h0v.3l1.6.4v-.2Z"/>
  <path class="st0" d="M9,49.7l-1-.2c.4.4.7.7,1.1,1.1h0l.2.2-.3-1h0Z"/>
  <path class="st0" d="M22.3,56.6l-5-.7h0,0-.4l2.7.9h0c.9.3,1.9.6,2.8.9h0l-.2-1h.1Z"/>
  <path class="st0" d="M29.2,56.8h0v.9h0v.8c1.7,0,3.5,0,5.2-.4,0-.2,0-.3.2-.6h0c0-.2,0-.3,0-.4h0v-.4h-.4l-5,.2h0Z"/>
  <path class="st0" d="M46.8,50.3h0c-.3,0-.6,0-.9.2h-.4c-.9,0-1.8.3-2.7.4v.5c0,.2,0,.4-.2.6v.2s0,.3,0,.4v.3s0,.3,0,.4v.7c0,.2,0,0,0,.2v.5h0v.5c0,0,1.5-.2,3.4-1.1.4-.3.9-.6,1.3-.9l.5-1.3h0v-.4q0,0,0,0v-.3c0-.1,0-.2,0-.2,0-.2,0-.4.2-.6h-1Z"/>
  <path class="st0" d="M35.6,2.2h0v.4s0,.3,0,.4v.4c0,.1,0,.3,0,.4v.7c0,.1,0,.2,0,.3v.8c0,.3,0,.6.2.9v.8h.3c.7,0,1.4,0,2.1.2h.3c.7,0,1.5.2,2.2.3h.2v-.4c0-.2,0-.5-.2-.7v-.2c0-.2,0-.5-.2-.7h0c0-.6-.3-1.1-.4-1.5,0-.1,0-.3,0-.4h0v-.2h0v-.3c-1.2-.4-5.2-1-5.2-1l.5-.2Z"/>
  <path class="st0" d="M16.1,49.9l1,.2h1.9c.5,0,.9,0,1.4,0h1.4v-2.9h0c0-.9,0-1.7,0-2.6v-.4h-1.5c-.6,0-1.2,0-1.7,0h-2.4c-.2,0-.5,0-.7,0,0,.2,0,.5,0,.7v2.2c0,.5,0,1,.2,1.5,0,0,0,.3,0,.4v1.2l.3-.2Z"/>
  <path class="st0" d="M22.9,50.4s.6.2,1.4.2h4.8v-1.3c0-.5,0-1,.2-1.6v-.2c0-.5,0-.9,0-1.4v-1.4h-6.9c0,1.9,0,3.7.2,5.4v.3h.2Z"/>
  <path class="st0" d="M24.3,56.8h-1v1.2c1.5.3,3,.5,4.5.6h0v-.3h0v-.4h0c0-.2,0-.3,0-.4v-.6h-3.8.2Z"/>
  <path class="st0" d="M1.7,29.7v-5.2h-.6c0,0-.1,0-.2,0,0,0-.1,0-.2,0h-.3c-.3,1.6-.4,3.2-.4,4.8v.4h0l1.6-.4v.3Z"/>
  <path class="st0" d="M6.5,28.9h.6v-5.7h-.6c-.2,0-.3,0-.4,0-.3,0-.7,0-1,.2h-.2c-.4,0-.8.2-1.2.3h-.3c-.2,0-.4,0-.6,0v5.3h0c0,0,3.7-.4,3.7-.4h0Z"/>
  <path class="st0" d="M1.9,23.3c0-.4.1-.7.1-1.1h0c0-.6,0-1,.2-1.5,0,0,0-.3.1-.4v-.9q0-.3.1-.5v-.4h-.3c-.7,1.5-1.1,3.1-1.4,4.8h0v.3h0l1-.4h.2Z"/>
</svg>